<?xml version="1.0" encoding="utf-8"?>
<!-- Generator: Adobe Illustrator 24.2.3, SVG Export Plug-In . SVG Version: 6.00 Build 0)  -->
<svg version="1.1" id="Layer_1" xmlns="http://www.w3.org/2000/svg" xmlns:xlink="http://www.w3.org/1999/xlink" x="0px" y="0px"
	 viewBox="0 0 416 416" style="enable-background:new 0 0 416 416;" xml:space="preserve">
<style type="text/css">
	.st0{fill:#FFFFFF;}
</style>
<g>
	<g>
		<g>
			<path class="st0" d="M158.5,31.9C256,4.6,357.2,61.5,384.5,159s-29.6,198.7-127.1,226s-198.7-29.6-226-127.1S61,59.2,158.5,31.9
				 M152.7,11.2c-26.6,7.5-51,19.9-72.5,37C59.5,64.7,42.4,84.9,29.4,108c-13,23.2-21.4,48.3-24.7,74.6c-3.5,27.2-1.5,54.5,6,81.2
				s19.9,51,37,72.5c16.5,20.7,36.7,37.8,59.9,50.9c23.2,13,48.3,21.4,74.6,24.7c27.2,3.5,54.5,1.5,81.2-6s51-19.9,72.5-37
				c20.7-16.5,37.8-36.7,50.9-59.9c13-23.2,21.4-48.3,24.7-74.6c3.5-27.2,1.5-54.5-6-81.2s-19.9-51-37-72.5
				C352,60,331.8,42.9,308.6,29.8c-23.2-13-48.3-21.4-74.6-24.7C206.7,1.7,179.3,3.7,152.7,11.2L152.7,11.2z"/>
		</g>
		<polyline class="st0" points="103.3,114.6 227.9,79.7 222.1,58.9 97.5,93.8 103.3,114.6 		"/>
		<polyline class="st0" points="156.5,144.5 281.1,109.6 275.3,88.8 150.7,123.8 156.5,144.5 		"/>
		<polyline class="st0" points="168.1,186.1 292.7,151.2 286.9,130.4 162.3,165.3 168.1,186.1 		"/>
		<polyline class="st0" points="138.2,239.3 262.8,204.3 257,183.6 132.4,218.5 138.2,239.3 		"/>
		<polyline class="st0" points="212.2,263.3 336.8,228.4 331,207.7 206.3,242.6 212.2,263.3 		"/>
		<polyline class="st0" points="223.8,304.9 348.4,270 342.6,249.2 218,284.1 223.8,304.9 		"/>
		<polyline class="st0" points="173.1,363.9 297.8,329 291.9,308.2 167.3,343.1 173.1,363.9 		"/>
	</g>
</g>
</svg>
